HIERARCHY
ROOT Hips
{
  OFFSET -4.35178 90.3298 111.633
  CHANNELS 6 Xposition Yposition Zposition Zrotation Xrotation Yrotation
  JOINT LeftUpLeg
  {
    OFFSET 0.103456 1.85784 10.5485
    CHANNELS 6 Xposition Yposition Zposition Zrotation Xrotation Yrotation
    JOINT LeftLeg
    {
      OFFSET 43.5 -4.2e-05 0
      CHANNELS 6 Xposition Yposition Zposition Zrotation Xrotation Yrotation
      JOINT LeftFoot
      {
        OFFSET 42.3722 1.9e-05 0
        CHANNELS 6 Xposition Yposition Zposition Zrotation Xrotation Yrotation
        JOINT LeftToe
        {
          OFFSET 17.3 0 0
          CHANNELS 6 Xposition Yposition Zposition Zrotation Xrotation Yrotation
          End Site
          {
            OFFSET 0 0 0
          }
        }
      }
    }
  }
  JOINT RightUpLeg
  {
    OFFSET 0.103456 1.85782 -10.5485
    CHANNELS 6 Xposition Yposition Zposition Zrotation Xrotation Yrotation
    JOINT RightLeg
    {
      OFFSET 43.5 -2.7e-05 0
      CHANNELS 6 Xposition Yposition Zposition Zrotation Xrotation Yrotation
      JOINT RightFoot
      {
        OFFSET 42.3723 0 0
        CHANNELS 6 Xposition Yposition Zposition Zrotation Xrotation Yrotation
        JOINT RightToe
        {
          OFFSET 17.3 0 1.7e-05
          CHANNELS 6 Xposition Yposition Zposition Zrotation Xrotation Yrotation
          End Site
          {
            OFFSET 0 0 0
          }
        }
      }
    }
  }
  JOINT Spine
  {
    OFFSET 6.90197 -2.60373 0
    CHANNELS 6 Xposition Yposition Zposition Zrotation Xrotation Yrotation
    JOINT Spine1
    {
      OFFSET 12.5881 0 0
      CHANNELS 6 Xposition Yposition Zposition Zrotation Xrotation Yrotation
      JOINT Spine2
      {
        OFFSET 12.3432 -1.8e-05 0
        CHANNELS 6 Xposition Yposition Zposition Zrotation Xrotation Yrotation
        JOINT Neck
        {
          OFFSET 25.8329 2.3e-05 0
          CHANNELS 6 Xposition Yposition Zposition Zrotation Xrotation Yrotation
          JOINT Head
          {
            OFFSET 11.7666 0 0
            CHANNELS 6 Xposition Yposition Zposition Zrotation Xrotation Yrotation
            End Site
            {
              OFFSET 0 0 0
            }
          }
        }
        JOINT LeftShoulder
        {
          OFFSET 19.7459 -1.48035 6.0001
          CHANNELS 6 Xposition Yposition Zposition Zrotation Xrotation Yrotation
          JOINT LeftArm
          {
            OFFSET 11.2841 1.8e-05 -2e-05
            CHANNELS 6 Xposition Yposition Zposition Zrotation Xrotation Yrotation
            JOINT LeftForeArm
            {
              OFFSET 33 -1.3e-05 1.9e-05
              CHANNELS 6 Xposition Yposition Zposition Zrotation Xrotation Yrotation
              JOINT LeftHand
              {
                OFFSET 25.2 3.2e-05 1.1e-05
                CHANNELS 6 Xposition Yposition Zposition Zrotation Xrotation Yrotation
                End Site
                {
                  OFFSET 0 0 0
                }
              }
            }
          }
        }
        JOINT RightShoulder
        {
          OFFSET 19.7461 -1.48036 -6.00008
          CHANNELS 6 Xposition Yposition Zposition Zrotation Xrotation Yrotation
          JOINT RightArm
          {
            OFFSET 11.2841 0 0
            CHANNELS 6 Xposition Yposition Zposition Zrotation Xrotation Yrotation
            JOINT RightForeArm
            {
              OFFSET 33.0001 1.6e-05 0
              CHANNELS 6 Xposition Yposition Zposition Zrotation Xrotation Yrotation
              JOINT RightHand
              {
                OFFSET 25.1998 0.000123 0.000432
                CHANNELS 6 Xposition Yposition Zposition Zrotation Xrotation Yrotation
                End Site
                {
                  OFFSET 0 0 0
                }
              }
            }
          }
        }
      }
    }
  }
}
MOTION
Frames:	6
Frame Time:	0.0333333
18.8232 92.2315 -3.60023 -42.1671 83.7376 134.557 0.103456 1.85784 10.5485 9.12997 4.74335 -179.408 43.5 -4.2e-05 1e-05 -5.75793 -8.60359 -1.72444 42.3722 1.9e-05 7.10543e-15 73.0307 -1.82827 3.77391 17.3 1.77636e-15 3e-06 21.4546 -1e-06 0.003093 0.103456 1.85782 -10.5485 3.68999 -10.9976 173.794 43.5 -2.7e-05 4e-06 -15.3834 10.9139 2.55025 42.3723 1.77636e-15 1e-05 79.6278 8.92711 -5.91909 17.3 -6e-06 1.7e-05 21.4546 -1.9e-05 -0.003116 6.90197 -2.60373 -3e-06 7.03942 -0.205402 -0.204103 12.5881 1e-05 8e-06 4.04899 -0.384253 -0.350003 12.3432 -1.8e-05 -5e-06 3.73752 -0.346466 -0.31605 25.8329 2.3e-05 7e-06 6.40295 -3.41146 -5.51725 11.7666 -8e-06 -6e-06 -24.3794 -8.54262 9.95943 19.7459 -1.48035 6.0001 174.797 -3.59487 -95.5196 11.2841 1.8e-05 -2e-05 9.5869 -20.7795 21.1831 33 -1.3e-05 1.9e-05 -18.3001 -0.613964 -18.8674 25.2 3.2e-05 1.1e-05 14.6938 29.2462 -2.57657 19.7461 -1.48036 -6.00008 178.194 7.07302 92.1628 11.2841 -3.55271e-15 -1e-06 -1.6003 9.03099 -13.1849 33.0001 1.6e-05 -1e-06 -20.2475 0.0305633 15.3534 25.1998 0.000123 0.000432 11.9898 -14.2845 3.02695 
18.8221 92.2316 -3.59755 -42.2979 83.7332 134.688 0.103456 1.85784 10.5485 9.13677 4.71973 -179.419 43.5 -4.2e-05 1e-05 -5.7543 -8.60703 -1.72445 42.3722 1.9e-05 7.10543e-15 73.038 -1.80319 3.77385 17.3 -1.77636e-15 3e-06 21.4546 -1e-06 0.003093 0.103456 1.85782 -10.5485 3.68924 -10.9805 173.78 43.5 -2.7e-05 4e-06 -15.3834 10.9139 2.55025 42.3723 0 1e-05 79.6311 8.94616 -5.93344 17.3 -6e-06 1.7e-05 21.4546 -1.9e-05 -0.003116 6.90197 -2.60373 -3e-06 7.03942 -0.205402 -0.204103 12.5881 1e-05 8e-06 4.06115 -0.384253 -0.350003 12.3432 -1.8e-05 -5e-06 3.74957 -0.346466 -0.31605 25.8329 2.3e-05 7e-06 6.41185 -3.30907 -5.53395 11.7666 -8e-06 -6e-06 -24.4265 -8.49183 10.0799 19.7459 -1.48035 6.0001 174.797 -3.59561 -95.5189 11.2841 1.8e-05 -2e-05 9.52089 -20.7198 21.099 33 -1.3e-05 1.9e-05 -18.2742 -0.634043 -18.8416 25.2 3.2e-05 1.1e-05 14.6803 29.2462 -2.57854 19.7461 -1.48036 -6.00008 178.168 7.12845 92.1636 11.2841 0 -1e-06 -1.57715 8.95515 -13.1201 33.0001 1.6e-05 -1e-06 -20.2018 0.0177706 15.3436 25.1998 0.000123 0.000432 11.9928 -14.2964 3.02711 
18.8469 92.2318 -3.59814 -42.2735 83.7459 134.664 0.103456 1.85784 10.5485 9.15456 4.72323 -179.431 43.5 -4.2e-05 1e-05 -5.74191 -8.61737 -1.7245 42.3722 1.9e-05 7.10543e-15 73.0558 -1.79235 3.77383 17.3 0 3e-06 21.4546 -1e-06 0.003093 0.103456 1.85782 -10.5485 3.7011 -10.9702 173.774 43.5 -2.7e-05 4e-06 -15.3755 10.9139 2.55025 42.3723 -1.77636e-15 1e-05 79.615 8.96489 -5.93987 17.3 -6e-06 1.7e-05 21.4546 -1.9e-05 -0.003116 6.90197 -2.60373 -3e-06 7.03942 -0.205402 -0.204103 12.5881 1e-05 8e-06 4.06943 -0.384253 -0.356596 12.3432 -1.8e-05 -5e-06 3.75788 -0.346465 -0.322638 25.8329 2.3e-05 7e-06 6.42199 -3.1894 -5.55954 11.7666 -8e-06 -6e-06 -24.4218 -8.41443 10.2121 19.7459 -1.48035 6.0001 174.817 -3.57486 -95.4948 11.2841 1.8e-05 -2e-05 9.51967 -20.6702 21.0129 33 -1.3e-05 1.9e-05 -18.2471 -0.602798 -18.8649 25.2 3.2e-05 1.1e-05 14.5273 29.2466 -2.56038 19.7461 -1.48036 -6.00008 178.137 7.19342 92.182 11.2841 0 -1e-06 -1.60174 8.89141 -13.0727 33.0001 1.6e-05 -1e-06 -20.1702 -0.0048639 15.3323 25.1998 0.000123 0.000432 11.9797 -14.3052 3.02723 
18.8799 92.231 -3.56932 -42.1503 83.7751 134.539 0.103456 1.85784 10.5485 9.1738 4.72833 -179.447 43.5 -4.2e-05 1e-05 -5.72688 -8.63336 -1.72457 42.3722 1.9e-05 0 73.093 -1.81207 3.77339 17.3 -1.77636e-15 3e-06 21.4546 -1e-06 0.003093 0.103456 1.85782 -10.5485 3.72622 -10.956 173.774 43.5 -2.7e-05 4e-06 -15.3453 10.9139 2.55025 42.3723 0 1e-05 79.6202 8.98023 -5.92916 17.3 -6e-06 1.7e-05 21.4546 -1.9e-05 -0.003116 6.90197 -2.60373 -3e-06 7.03966 -0.205402 -0.208996 12.5881 1e-05 8e-06 4.07436 -0.384252 -0.366188 12.3432 -1.8e-05 -5e-06 3.76286 -0.346465 -0.332053 25.8329 2.3e-05 7e-06 6.43113 -3.07909 -5.58874 11.7666 -8e-06 -6e-06 -24.3628 -8.32437 10.3186 19.7459 -1.48035 6.0001 174.795 -3.531 -95.5069 11.2841 1.8e-05 -2e-05 9.61997 -20.7181 20.956 33 -1.3e-05 1.9e-05 -18.3061 -0.651702 -18.87 25.2 3.2e-05 1.1e-05 14.6745 29.2454 -2.61845 19.7461 -1.48036 -6.00008 178.125 7.23963 92.2099 11.2841 0 -1e-06 -1.63979 8.84755 -13.0301 33.0001 1.6e-05 -1e-06 -20.2041 -0.0073172 15.332 25.1998 0.000123 0.000432 11.9581 -14.3064 3.03277 
18.9144 92.2305 -3.53903 -42.0069 83.8068 134.388 0.103456 1.85784 10.5485 9.18609 4.73158 -179.465 43.5 -4.2e-05 1e-05 -5.73227 -8.6489 -1.7281 42.3722 1.9e-05 -7.10543e-15 73.1073 -1.82021 3.79216 17.3 -8.88178e-16 3e-06 21.4546 -1e-06 0.003093 0.103456 1.85782 -10.5485 3.72864 -10.9329 173.749 43.5 -2.7e-05 4e-06 -15.3087 10.9008 2.5516 42.3723 1.77636e-15 1e-05 79.5975 9.01815 -5.89825 17.3 -6e-06 1.7e-05 21.4546 -1.9e-05 -0.003116 6.90197 -2.60373 -3e-06 7.04052 -0.205402 -0.21215 12.5881 1e-05 8e-06 4.07179 -0.384253 -0.360024 12.3432 -1.8e-05 -5e-06 3.76032 -0.346465 -0.32568 25.8329 2.3e-05 7e-06 6.43372 -3.0464 -5.60004 11.7666 -8e-06 -6e-06 -24.2671 -8.29451 10.3611 19.7459 -1.48035 6.0001 174.782 -3.55759 -95.5116 11.2841 1.8e-05 -2e-05 9.62781 -20.6981 20.9167 33 -1.3e-05 1.9e-05 -18.2608 -0.636144 -18.8782 25.2 3.2e-05 1.1e-05 14.5908 29.2461 -2.58301 19.7461 -1.48036 -6.00008 178.088 7.28009 92.1996 11.2841 0 -1e-06 -1.73849 8.77205 -12.9099 33.0001 1.6e-05 -1e-06 -20.2565 -0.0394989 15.3373 25.1998 0.000123 0.000432 11.9248 -14.3286 3.03757 
18.95 92.2303 -3.50971 -41.706 83.8471 134.078 0.103456 1.85784 10.5485 9.2012 4.72767 -179.486 43.5 -4.2e-05 1e-05 -5.74556 -8.66787 -1.73478 42.3722 1.9e-05 0 73.118 -1.84207 3.81094 17.3 8.88178e-16 3e-06 21.4546 -1e-06 0.003093 0.103456 1.85782 -10.5485 3.74138 -10.9284 173.735 43.5 -2.7e-05 4e-06 -15.3001 10.8836 2.55285 42.3723 1.77636e-15 1e-05 79.5763 9.00514 -5.87992 17.3 -6e-06 1.7e-05 21.4546 -1.9e-05 -0.003116 6.90197 -2.60373 -3e-06 7.04355 -0.205402 -0.214892 12.5881 1e-05 8e-06 4.07791 -0.384253 -0.353246 12.3432 -1.8e-05 -5e-06 3.76644 -0.346466 -0.318776 25.8329 2.3e-05 7e-06 6.43307 -3.05289 -5.60021 11.7666 -8e-06 -6e-06 -24.1559 -8.30091 10.3694 19.7459 -1.48035 6.0001 174.775 -3.58273 -95.4951 11.2841 1.8e-05 -2e-05 9.65159 -20.6718 20.8892 33 -1.3e-05 1.9e-05 -18.3441 -0.687591 -18.8293 25.2 3.2e-05 1.1e-05 14.6418 29.2303 -2.59304 19.7461 -1.48036 -6.00008 178.077 7.29265 92.1678 11.2841 3.55271e-15 -1e-06 -1.78653 8.7239 -12.8404 33.0001 1.6e-05 -1e-06 -20.396 -0.0645129 15.3625 25.1998 0.000123 0.000432 11.869 -14.3395 3.05523 
